# xmcd CD database file generated by Grip 3.2.0
# 
# Track frame offsets:
#       183
#       10465
#       22123
#       33115
#       45988
#       57608
#       70593
#       80465
#       92098
#       104760
# 
# Disc length: 1536 seconds
# 
# Revision: 2
# Processed by: cddbd v1.5.1PL0 Copyright (c) Steve Scherf et al.
# Submitted via: Grip 3.2.0
# 
DISCID=7d05fe0a
DTITLE=Howlin' Wolf - Smoke Stack Lightning
DYEAR=1991
DGENRE=Blues
TTITLE0=Smoke Stack Lightning
TTITLE1=Who Will Be Next
TTITLE2=The Red Rooster
TTITLE3=Back Door Man
TTITLE4=Howlin' For My Darling
TTITLE5=Evil
TTITLE6=Down In The Bottom
TTITLE7=Built For Comfort
TTITLE8=Killing Floor
TTITLE9=Who's Been Talkin'
EXTD=
EXTT0=
EXTT1=
EXTT2=
EXTT3=
EXTT4=
EXTT5=
EXTT6=
EXTT7=
EXTT8=
EXTT9=
PLAYORDER=
